<mxfile host="app.diagrams.net" modified="2024-01-17T17:59:39.115Z" agent="Mozilla/5.0 (Windows NT 10.0; Win64; x64) AppleWebKit/537.36 (KHTML, like Gecko) Chrome/119.0.0.0 Safari/537.36 OPR/105.0.0.0" etag="R0LGiBxvZc4qQrr_qVuY" version="22.1.21" type="github">
  <diagram name="Page-1" id="L5JkIaXrgnuLFN9mpIo5">
    <mxGraphModel dx="1441" dy="819" grid="1" gridSize="10" guides="1" tooltips="1" connect="1" arrows="1" fold="1" page="1" pageScale="1" pageWidth="1169" pageHeight="827" math="0" shadow="0">
      <root>
        <mxCell id="0" />
        <mxCell id="1" parent="0" />
        <mxCell id="qjaWqvQIk0k9PkbBaL9O-39" value="&lt;font style=&quot;font-size: 20px;&quot; face=&quot;Courier New&quot;&gt;&lt;b&gt;&amp;lt;value(s)&amp;gt;&lt;/b&gt;&lt;/font&gt;" style="text;html=1;strokeColor=none;fillColor=none;align=center;verticalAlign=middle;whiteSpace=wrap;rounded=0;" vertex="1" parent="1">
          <mxGeometry x="490" y="100" width="190" height="30" as="geometry" />
        </mxCell>
        <mxCell id="qjaWqvQIk0k9PkbBaL9O-41" value="&lt;font style=&quot;font-size: 20px;&quot; face=&quot;Courier New&quot;&gt;&lt;b&gt;&amp;lt;string&amp;gt;&lt;/b&gt;&lt;/font&gt;" style="text;html=1;strokeColor=none;fillColor=none;align=center;verticalAlign=middle;whiteSpace=wrap;rounded=0;" vertex="1" parent="1">
          <mxGeometry x="490" y="240" width="190" height="30" as="geometry" />
        </mxCell>
        <mxCell id="qjaWqvQIk0k9PkbBaL9O-42" value="&lt;font style=&quot;font-size: 20px;&quot; face=&quot;Courier New&quot;&gt;&lt;b&gt;&amp;lt;string_lit&amp;gt;&lt;/b&gt;&lt;/font&gt;" style="text;html=1;strokeColor=none;fillColor=none;align=center;verticalAlign=middle;whiteSpace=wrap;rounded=0;" vertex="1" parent="1">
          <mxGeometry x="490" y="350" width="190" height="30" as="geometry" />
        </mxCell>
        <mxCell id="qjaWqvQIk0k9PkbBaL9O-43" value="" style="endArrow=classic;html=1;rounded=0;entryX=0.5;entryY=0;entryDx=0;entryDy=0;exitX=0.5;exitY=1;exitDx=0;exitDy=0;" edge="1" parent="1" source="qjaWqvQIk0k9PkbBaL9O-39" target="qjaWqvQIk0k9PkbBaL9O-41">
          <mxGeometry width="50" height="50" relative="1" as="geometry">
            <mxPoint x="350" y="250" as="sourcePoint" />
            <mxPoint x="400" y="200" as="targetPoint" />
          </mxGeometry>
        </mxCell>
        <mxCell id="qjaWqvQIk0k9PkbBaL9O-44" value="" style="endArrow=classic;html=1;rounded=0;entryX=0.5;entryY=0;entryDx=0;entryDy=0;exitX=0.5;exitY=1;exitDx=0;exitDy=0;" edge="1" parent="1" source="qjaWqvQIk0k9PkbBaL9O-41" target="qjaWqvQIk0k9PkbBaL9O-42">
          <mxGeometry width="50" height="50" relative="1" as="geometry">
            <mxPoint x="560" y="260" as="sourcePoint" />
            <mxPoint x="560" y="340" as="targetPoint" />
          </mxGeometry>
        </mxCell>
        <mxCell id="qjaWqvQIk0k9PkbBaL9O-54" value="" style="endArrow=classic;html=1;rounded=0;exitX=0.75;exitY=1;exitDx=0;exitDy=0;entryX=0.5;entryY=0;entryDx=0;entryDy=0;" edge="1" parent="1" source="qjaWqvQIk0k9PkbBaL9O-41" target="qjaWqvQIk0k9PkbBaL9O-57">
          <mxGeometry width="50" height="50" relative="1" as="geometry">
            <mxPoint x="605" y="290" as="sourcePoint" />
            <mxPoint x="740" y="350" as="targetPoint" />
          </mxGeometry>
        </mxCell>
        <mxCell id="qjaWqvQIk0k9PkbBaL9O-55" value="" style="endArrow=classic;html=1;rounded=0;exitX=0.25;exitY=1;exitDx=0;exitDy=0;entryX=0.5;entryY=0;entryDx=0;entryDy=0;" edge="1" parent="1" source="qjaWqvQIk0k9PkbBaL9O-41" target="qjaWqvQIk0k9PkbBaL9O-56">
          <mxGeometry width="50" height="50" relative="1" as="geometry">
            <mxPoint x="430" y="290" as="sourcePoint" />
            <mxPoint x="410" y="350" as="targetPoint" />
          </mxGeometry>
        </mxCell>
        <mxCell id="qjaWqvQIk0k9PkbBaL9O-56" value="&lt;font style=&quot;font-size: 20px;&quot; face=&quot;Courier New&quot;&gt;&lt;b&gt;STRING_DELIMITER&lt;/b&gt;&lt;/font&gt;" style="text;html=1;strokeColor=none;fillColor=none;align=center;verticalAlign=middle;whiteSpace=wrap;rounded=0;" vertex="1" parent="1">
          <mxGeometry x="290" y="350" width="190" height="30" as="geometry" />
        </mxCell>
        <mxCell id="qjaWqvQIk0k9PkbBaL9O-57" value="&lt;font style=&quot;font-size: 20px;&quot; face=&quot;Courier New&quot;&gt;&lt;b&gt;STRING_DELIMITER&lt;/b&gt;&lt;/font&gt;" style="text;html=1;strokeColor=none;fillColor=none;align=center;verticalAlign=middle;whiteSpace=wrap;rounded=0;" vertex="1" parent="1">
          <mxGeometry x="690" y="350" width="190" height="30" as="geometry" />
        </mxCell>
        <mxCell id="qjaWqvQIk0k9PkbBaL9O-59" value="" style="endArrow=classic;html=1;rounded=0;exitX=0.5;exitY=1;exitDx=0;exitDy=0;" edge="1" parent="1" source="qjaWqvQIk0k9PkbBaL9O-42">
          <mxGeometry width="50" height="50" relative="1" as="geometry">
            <mxPoint x="580" y="390" as="sourcePoint" />
            <mxPoint x="585" y="480" as="targetPoint" />
          </mxGeometry>
        </mxCell>
        <mxCell id="qjaWqvQIk0k9PkbBaL9O-60" value="&lt;font face=&quot;Courier New&quot;&gt;&lt;span style=&quot;font-size: 20px;&quot;&gt;&lt;b&gt;string1&lt;/b&gt;&lt;/span&gt;&lt;/font&gt;" style="text;html=1;strokeColor=none;fillColor=none;align=center;verticalAlign=middle;whiteSpace=wrap;rounded=0;" vertex="1" parent="1">
          <mxGeometry x="490" y="490" width="190" height="30" as="geometry" />
        </mxCell>
      </root>
    </mxGraphModel>
  </diagram>
</mxfile>
